<?xml version="1.0" standalone="no"?>
<!DOCTYPE svg PUBLIC "-//W3C//DTD SVG 20010904//EN"
 "http://www.w3.org/TR/2001/REC-SVG-20010904/DTD/svg10.dtd">
<svg version="1.0" xmlns="http://www.w3.org/2000/svg"
 width="162.000000pt" height="162.000000pt" viewBox="0 0 162.000000 162.000000"
 preserveAspectRatio="xMidYMid meet">
<metadata>
Created by potrace 1.11, written by Peter Selinger 2001-2013
</metadata>
<g transform="translate(0.000000,162.000000) scale(0.100000,-0.100000)"
fill="#000000" stroke="none">
<path d="M396 1610 c-38 -12 -73 -46 -85 -84 -6 -19 -9 -284 -8 -688 2 -647 3
-658 23 -685 40 -54 61 -58 285 -59 301 -1 393 24 508 136 100 97 151 226 146
367 -4 132 -47 225 -154 330 -39 39 -51 56 -43 66 24 29 53 125 56 185 9 204
-123 387 -309 427 -47 11 -387 14 -419 5z m407 -283 c26 -20 41 -42 50 -75 36
-122 -30 -192 -184 -196 -43 -2 -84 1 -91 5 -10 6 -13 45 -13 153 l-1 145 102
-2 c93 -2 104 -4 137 -30z m89 -559 c51 -30 91 -84 109 -146 26 -90 -27 -199
-118 -243 -40 -19 -66 -23 -168 -25 -66 -1 -127 2 -136 7 -14 7 -16 34 -14
221 2 117 3 213 4 214 0 0 63 0 139 -1 130 -1 141 -3 184 -27z"/>
</g>
</svg>
